<svg xmlns="http://www.w3.org/2000/svg" xmlns:xlink="http://www.w3.org/1999/xlink" width="593.749" height="403.548"><defs><linearGradient id="b" x1="255.451" y1="80.698" x2="217.386" y2="158.35" gradientUnits="userSpaceOnUse"><stop offset="0" stop-color="#41873f"/><stop offset=".33" stop-color="#418b3d"/><stop offset=".637" stop-color="#409637"/><stop offset=".934" stop-color="#3fa92d"/><stop offset="1" stop-color="#3fae2a"/></linearGradient><linearGradient id="d" x1="231.907" y1="121.336" x2="338.714" y2="42.422" gradientUnits="userSpaceOnUse"><stop offset=".138" stop-color="#41873f"/><stop offset=".404" stop-color="#54a044"/><stop offset=".714" stop-color="#66b748"/><stop offset=".908" stop-color="#6cc04a"/></linearGradient><linearGradient id="a" x1="189.612" y1="53.817" x2="287.029" y2="53.817" gradientUnits="userSpaceOnUse"><stop offset=".092" stop-color="#6cc04a"/><stop offset=".286" stop-color="#66b748"/><stop offset=".596" stop-color="#54a044"/><stop offset=".862" stop-color="#41873f"/></linearGradient><linearGradient id="e" x1="189.612" y1="115.635" x2="287.029" y2="115.635" xlink:href="#a"/><linearGradient id="f" x1="189.612" y1="143.445" x2="287.029" y2="143.445" xlink:href="#a"/><linearGradient id="g" x1="189.612" y1="156.015" x2="287.029" y2="156.015" xlink:href="#a"/><linearGradient id="h" x1="301.221" y1="78.395" x2="241.14" y2="200.96" xlink:href="#b"/><clipPath id="c"><path d="M240.87 62.59a5.087 5.087 0 00-5.088 0L193.648 86.9a5.086 5.086 0 00-2.546 4.408v48.666a5.092 5.092 0 002.544 4.408l42.134 24.338a5.092 5.092 0 005.09 0l42.125-24.334a5.093 5.093 0 002.543-4.408V91.31a5.086 5.086 0 00-2.545-4.406z" fill="url(#b)" clip-rule="evenodd"/></clipPath></defs><g fill="#699f63"><path d="M293.7 270.927a8.373 8.373 0 01-4.19-1.12l-13.34-7.893c-1.99-1.115-1.017-1.51-.36-1.738a26.6 26.6 0 006.03-2.743 1.024 1.024 0 01.992.076l10.247 6.08a1.317 1.317 0 001.23 0l39.95-23.06a1.26 1.26 0 00.61-1.08v-46.1a1.29 1.29 0 00-.62-1.1l-39.93-23.05a1.25 1.25 0 00-1.23 0l-39.92 23.04a1.284 1.284 0 00-.64 1.09v46.1a1.224 1.224 0 00.63 1.06l10.94 6.32c5.94 2.97 9.57-.53 9.57-4.04v-45.52a1.15 1.15 0 011.16-1.15h5.07a1.153 1.153 0 011.16 1.15v45.53c0 7.92-4.32 12.47-11.83 12.47-2.31 0-4.13 0-9.2-2.5l-10.48-6.03a8.438 8.438 0 01-4.19-7.29v-46.1a8.42 8.42 0 014.19-7.28l39.95-23.09a8.754 8.754 0 018.4 0l39.94 23.08a8.433 8.433 0 014.2 7.28v46.1a8.456 8.456 0 01-4.2 7.29l-39.94 23.07a8.38 8.38 0 01-4.22 1.12z"/><path d="M306.043 239.165c-17.482 0-21.144-8.024-21.144-14.755a1.148 1.148 0 011.15-1.15h5.16a1.157 1.157 0 011.14.978c.78 5.258 3.1 7.912 13.67 7.912 8.41 0 12-1.9 12-6.37 0-2.573-1.02-4.484-14.1-5.765-10.93-1.08-17.69-3.5-17.69-12.24 0-8.062 6.79-12.87 18.18-12.87 12.8 0 19.13 4.443 19.93 13.973a1.155 1.155 0 01-1.15 1.257H318a1.15 1.15 0 01-1.12-.9c-1.243-5.533-4.27-7.3-12.475-7.3-9.19 0-10.26 3.2-10.26 5.6 0 2.906 1.26 3.752 13.67 5.394 12.274 1.62 18.11 3.92 18.11 12.54 0 8.7-7.26 13.68-19.918 13.68z"/></g><path d="M363.648 190.814a7.7 7.7 0 11-7.7-7.7 7.72 7.72 0 017.7 7.7zm-14.155-.02a6.457 6.457 0 106.435-6.437 6.46 6.46 0 00-6.435 6.435zm3.563-4.3h2.976c1.018 0 3.015 0 3.015 2.28a1.984 1.984 0 01-1.632 2.12c1.184.08 1.264.855 1.426 1.955a8.505 8.505 0 00.45 2.28h-1.83c-.04-.41-.33-2.61-.33-2.73-.12-.49-.28-.74-.9-.74h-1.5v3.46h-1.67zm1.632 3.788h1.343a1.16 1.16 0 001.3-1.22c0-1.184-.81-1.184-1.26-1.184h-1.38z" fill="#699f63"/><path d="M169.992 90.55a5.108 5.108 0 00-2.558-4.445L125.08 61.73a4.992 4.992 0 00-2.332-.674h-.438a5.064 5.064 0 00-2.34.674L77.617 86.1a5.132 5.132 0 00-2.56 4.445l.092 65.635a2.514 2.514 0 001.27 2.21 2.46 2.46 0 002.54 0l25.17-14.415a5.154 5.154 0 002.56-4.438v-30.66a5.1 5.1 0 012.55-4.428l10.72-6.18a5.09 5.09 0 012.56-.69 5.01 5.01 0 012.54.68l10.71 6.17a5.1 5.1 0 012.56 4.43v30.66a5.166 5.166 0 002.56 4.43l25.16 14.41a2.49 2.49 0 002.56 0 2.556 2.556 0 001.27-2.21zM373.79.324a2.558 2.558 0 00-3.805 2.234v65a1.79 1.79 0 01-2.685 1.55L356.69 63a5.117 5.117 0 00-5.11 0l-42.373 24.452a5.115 5.115 0 00-2.56 4.43V140.8a5.12 5.12 0 002.56 4.432l42.37 24.47a5.12 5.12 0 005.117 0l42.376-24.472a5.12 5.12 0 002.558-4.432V18.862A5.117 5.117 0 00399 14.394zm-3.93 124.4a1.276 1.276 0 01-.64 1.106l-14.55 8.386a1.28 1.28 0 01-1.276 0l-14.548-8.386a1.275 1.275 0 01-.64-1.106v-16.8a1.282 1.282 0 01.64-1.108l14.547-8.4a1.28 1.28 0 011.28 0l14.548 8.4a1.282 1.282 0 01.64 1.108z" fill="#333" fill-rule="evenodd"/><g fill-rule="evenodd"><path d="M514.88 107.488a5.116 5.116 0 002.546-4.424V91.21a5.117 5.117 0 00-2.548-4.425l-42.1-24.443a5.116 5.116 0 00-5.127-.007L425.3 86.788a5.116 5.116 0 00-2.558 4.43v48.9a5.114 5.114 0 002.584 4.445l42.093 23.985a5.114 5.114 0 005.01.028l25.46-14.15a2.56 2.56 0 00.03-4.456l-42.62-24.46a2.558 2.558 0 01-1.29-2.22v-15.326a2.556 2.556 0 011.28-2.216l13.27-7.648a2.554 2.554 0 012.55 0l13.27 7.648a2.556 2.556 0 011.28 2.216v12.058a2.558 2.558 0 003.84 2.213z" fill="#333"/><path d="M469.59 105.2a.98.98 0 01.983 0l8.13 4.69a.983.983 0 01.49.85v9.39a.983.983 0 01-.49.85l-8.13 4.69a.98.98 0 01-.982 0l-8.12-4.69a.983.983 0 01-.49-.85v-9.39a.983.983 0 01.49-.85z" fill="#699f63"/></g><path d="M240.87 62.59a5.087 5.087 0 00-5.088 0L193.648 86.9a5.086 5.086 0 00-2.546 4.408v48.666a5.092 5.092 0 002.544 4.408l42.134 24.338a5.092 5.092 0 005.09 0l42.125-24.334a5.093 5.093 0 002.543-4.408V91.31a5.086 5.086 0 00-2.545-4.406z" fill-rule="evenodd" fill="url(#b)"/><g clip-path="url(#c)"><path d="M235.693 62.59L193.47 86.9a5.258 5.258 0 00-2.72 4.408v48.666a4.92 4.92 0 001.312 3.238L239.5 62.064a5.168 5.168 0 00-3.807.526zm4.044 106.622a5.07 5.07 0 001.186-.492l42.177-24.334a5.194 5.194 0 002.65-4.408V91.31a5.028 5.028 0 00-1.54-3.534z" fill="none"/><path d="M283.076 86.9l-42.25-24.31a5.058 5.058 0 00-1.323-.526l-47.44 81.152a5.8 5.8 0 001.42 1.17l42.323 24.333a5.14 5.14 0 003.93.49l44.474-81.44a5.542 5.542 0 00-1.134-.88z" fill="url(#d)"/><path d="M285.75 139.978V91.31a5.21 5.21 0 00-2.674-4.406l-42.25-24.314a5.066 5.066 0 00-1.552-.57l46.317 79.127a4.68 4.68 0 00.16-1.17zM193.47 86.9a5.258 5.258 0 00-2.72 4.408v48.666a5.278 5.278 0 002.732 4.408l42.323 24.334a5.133 5.133 0 003.256.632l-45.33-82.59z" fill="none"/><path fill="url(#a)" d="M234.376 53.652l-.58.33h.774l-.194-.33"/><path d="M283.1 144.386a5.326 5.326 0 002.49-3.238l-46.316-79.13a5.158 5.158 0 00-3.58.572l-41.97 24.168 45.338 82.594a5.1 5.1 0 001.86-.632z" fill="url(#e)"/><path fill="url(#f)" d="M287.03 143.603l-.28-.477v.64l.28-.163"/><path d="M283.1 144.386l-42.177 24.334a5.1 5.1 0 01-1.86.632l.84 1.53 46.846-27.118v-.64l-1.16-1.977a5.326 5.326 0 01-2.49 3.24z" fill="url(#g)"/><path d="M283.1 144.386l-42.177 24.334a5.1 5.1 0 01-1.86.632l.84 1.53 46.846-27.118v-.64l-1.16-1.977a5.326 5.326 0 01-2.49 3.24z" fill="url(#h)"/></g><g fill="#47848f"><path d="M124.93 385.762h32.69a1.717 1.717 0 100-3.434h-30.83v-20.1h27.255a1.717 1.717 0 000-3.434H126.79v-19.67h30.473a1.717 1.717 0 100-3.435H124.93a1.894 1.894 0 00-1.86 1.86v46.35a1.894 1.894 0 001.86 1.86zm57.1-1.86a1.894 1.894 0 001.86 1.86h29.83a1.717 1.717 0 000-3.434h-27.966v-45.065a1.86 1.86 0 00-3.72 0zm57.175 1.86H271.9a1.717 1.717 0 100-3.434h-30.83v-20.1h27.254a1.717 1.717 0 100-3.434h-27.256v-19.67h30.472a1.717 1.717 0 000-3.435h-32.332a1.894 1.894 0 00-1.86 1.86v46.35a1.894 1.894 0 001.86 1.86zm79.778.858c8.37 0 13.877-3.076 18.956-7.8a1.813 1.813 0 00.57-1.288 1.868 1.868 0 00-1.79-1.788 1.813 1.813 0 00-1.29.572c-4.72 4.506-9.52 6.94-16.31 6.94-11.95 0-21.17-9.872-21.17-22.533v-.143c0-12.59 9.08-22.39 21.1-22.39 7.01 0 11.8 2.72 15.95 6.51a1.907 1.907 0 001.29.5 1.958 1.958 0 001.93-1.86 2.15 2.15 0 00-.72-1.5c-4.87-4.15-10.09-7.01-18.39-7.01-14.45 0-25.04 11.73-25.04 25.894v.143c0 14.378 10.58 25.75 24.89 25.75zm55.028-2.432a1.86 1.86 0 003.72 0v-45.065h16.03a1.717 1.717 0 100-3.434h-35.77a1.717 1.717 0 100 3.43h16.03zm43.52 0a1.86 1.86 0 003.72 0v-19.17h16.38l15.38 20.03a2.058 2.058 0 001.65 1 2.02 2.02 0 001.93-1.932 2.075 2.075 0 00-.57-1.288l-14.23-18.455c8.44-1.145 14.67-5.937 14.67-14.306v-.143a13.2 13.2 0 00-3.79-9.3c-3-3-7.94-4.936-14.09-4.936H419.4a1.894 1.894 0 00-1.86 1.86zm3.72-22.532v-22.533h17.1c9.09 0 14.38 4.22 14.38 10.944v.143c0 7.225-6.22 11.445-14.59 11.445zm81.93 24.964c15.17 0 25.25-12.232 25.25-25.894v-.143c0-13.663-9.94-25.75-25.1-25.75s-25.25 12.23-25.25 25.893v.143c0 13.66 9.94 25.75 25.11 25.75zm.15-3.362c-12.37 0-21.39-10.157-21.39-22.532v-.143c0-12.375 8.87-22.39 21.25-22.39s21.39 10.158 21.39 22.533v.143c0 12.37-8.87 22.38-21.24 22.38zm48.8 1a1.788 1.788 0 003.58 0v-43.132l34.41 43.634a2.54 2.54 0 001.86 1.216h.29a1.527 1.527 0 001.5-1.574v-47.21a1.788 1.788 0 00-3.57 0v42.2l-33.76-42.844a2.323 2.323 0 00-1.86-1.073H554a1.894 1.894 0 00-1.86 1.86zm-522.67-51.74c-11.82-2.153-21.17.1-24.9 6.554-2.78 4.816-1.98 11.2 1.93 18.025a1.212 1.212 0 002.1-1.206c-3.52-6.14-4.21-11.65-1.93-15.6 3.1-5.36 11.44-7.37 22.36-5.38a1.212 1.212 0 00.44-2.38zm-16.83 32.874a75.88 75.88 0 0018.08 14.27c17.15 9.9 35.41 12.55 44.41 6.414a1.212 1.212 0 00-1.36-2c-8.05 5.49-25.4 2.977-41.83-6.51a73.468 73.468 0 01-17.49-13.8 1.212 1.212 0 00-1.79 1.632z"/><path d="M72.237 363.917c7.742-9.146 10.445-18.344 6.727-24.784-2.736-4.74-8.52-7.24-16.206-7.34a1.212 1.212 0 00-.032 2.425c6.913.09 11.9 2.245 14.138 6.128 3.088 5.35.678 13.552-6.477 22a1.212 1.212 0 001.85 1.567zm-19.9-31a75.717 75.717 0 00-21.606 8.563c-17.7 10.227-29.25 25.3-27.64 36.23a1.212 1.212 0 002.4-.353c-1.42-9.7 9.53-23.99 26.47-33.772a73.306 73.306 0 0120.9-8.292 1.212 1.212 0 10-.51-2.37z"/><path d="M23.658 385.286c4.048 11.3 10.67 18.262 18.116 18.262 5.43 0 10.455-3.7 14.373-10.22a1.212 1.212 0 10-2.078-1.248c-3.53 5.857-7.85 9.044-12.3 9.044-6.19 0-12.1-6.207-15.84-16.654a1.212 1.212 0 00-2.29.818zm36.973-2.21a76.128 76.128 0 003.23-22.47c0-20.087-7.03-37.4-17.04-41.848a1.212 1.212 0 00-.98 2.216c8.93 3.965 15.6 20.4 15.6 39.63a73.716 73.716 0 01-3.11 21.747 1.212 1.212 0 002.32.73zm22.84-1.19a5.8 5.8 0 10-5.8 5.8 5.8 5.8 0 005.8-5.8zm-2.42 0a3.378 3.378 0 11-3.37-3.377 3.378 3.378 0 013.38 3.37zM5.8 387.69a5.8 5.8 0 10-5.8-5.8 5.8 5.8 0 005.8 5.8zm0-2.425a3.378 3.378 0 113.378-3.378 3.378 3.378 0 01-3.378 3.378z"/><path d="M41.774 324.677a5.8 5.8 0 10-5.8-5.8 5.8 5.8 0 005.8 5.8zm0-2.425a3.378 3.378 0 113.378-3.378 3.378 3.378 0 01-3.378 3.378zm.886 42.456a4.2 4.2 0 113.218-4.99 4.2 4.2 0 01-3.217 4.99z"/></g></svg>